<?xml version="1.0"?> <svg xmlns="http://www.w3.org/2000/svg" id="Outlined" version="1.1" viewBox="0 0 360.7 351.1"><defs></defs><path fill="#ffffff" d="M175.9,144.9h28.1s0,0,0,0c1.6-7.6,7.8-13.6,15.6-14.8,0,0,0,0,0,0-7.8-1.2-14-7.1-15.6-14.8,0,0,0,0,0,0-1.6,7.6-7.8,13.6-15.6,14.8,0,0,0,0,0,0,7.2,1.1,13.1,6.4,15.1,13.2h-27.6v-59.5h28.2c12.7,0,23.1,4.1,31,12.4,8,8.3,11.9,19.1,11.9,32.3s-4,24-11.9,32.3c-8,8.3-18.3,12.4-31,12.4h-28.2v-25.9h-26.4v13.5c0,2.4.5,4.5,1.4,6.4.9,1.9,2,3.2,3.2,4,1.2.8,2.6,1.5,4.1,2,1.5.5,2.6.8,3.2.8h1.3l-1.4.2c-.8,0-1.9.2-3.2.7-1.3.5-2.7,1.1-4,2-1.3.9-2.4,2.2-3.3,4-.9,1.8-1.3,3.9-1.3,6.5v19.1c0,2.5-.5,4.7-1.5,6.5s-2.1,3.1-3.2,4c-1.1.9-2.5,1.5-4,2-1.5.5-2.6.7-3.2.8-.6,0-1.1.1-1.5.1v1.6h53.1v-1.6l-1.4-.2c-.9,0-2.1-.2-3.4-.7-1.3-.5-2.6-1.1-3.9-2-1.3-.9-2.4-2.2-3.3-4-.9-1.8-1.4-3.9-1.4-6.5v-31.4h23.7l26.6,31.4c4.2,4.2,5.9,7.4,4.9,9.3-1,2-1.9,3.2-2.8,3.5-.9.3-1.8.5-2.7.5v1.6h53.1v-1.6c-1.2-.1-2.3-.3-3.3-.4-1-.1-2.1-.4-3.4-.7-1.3-.3-2.7-.8-4.4-1.5-1.7-.7-3.3-1.4-4.9-2.3-1.6-.9-3.3-2-5.1-3.5-1.8-1.5-3.5-3.1-5.1-5l-27.6-32.8c16.6-2.3,29.1-7.3,37.6-15.1,8.5-7.8,12.7-17.8,12.7-30s-6-25.8-18-34c-12-8.2-29.7-12.3-53.2-12.3h-68v1.6h.8c.4.1,1,.3,1.8.4s1.7.4,2.6.7c.9.3,1.9.8,2.9,1.5,1,.7,1.9,1.4,2.6,2.3.7.9,1.4,2,1.9,3.5.5,1.5.8,3.1.8,5v46.2h-28.3V20.6c0-2.5.5-4.7,1.4-6.5.9-1.8,2-3.1,3.2-4,1.2-.9,2.6-1.5,4.1-2,1.5-.5,2.6-.7,3.2-.8.6,0,1.1-.1,1.5-.1v-1.6h-53.1v1.6h.8c.4.1,1,.3,1.8.4.8.1,1.7.4,2.6.7.9.3,1.9.8,2.9,1.5,1,.7,1.9,1.4,2.6,2.3.7.9,1.4,2,1.9,3.5.5,1.5.8,3.1.8,5v109.3c0,2.5-.5,4.7-1.5,6.5-1,1.8-2.1,3.1-3.2,4-1.1.9-2.5,1.5-4,2-1.5.5-2.6.7-3.2.8-.6,0-1.1.1-1.5.1v1.6h94.5Z"></path><g><path fill="#ffffff" d="M10.1,256.1v32h23.2v5.8H3.6v-37.8h6.5Z"></path><path fill="#ffffff" d="M60.4,277h-14.5v11.1h25.6v5.8h-32.1v-37.8h30.7v5.8h-24.2v9.4h14.5v5.8Z"></path><path fill="#ffffff" d="M78.8,293.9v-37.8h30.4v5.8h-23.9v9.4h14.5v5.8h-14.5v16.8h-6.5Z"></path><path fill="#ffffff" d="M115.2,256.1h36.2v5.8h-14.8v32h-6.5v-32h-14.9v-5.8Z"></path><path fill="#ffffff" d="M172.7,293.9v-37.8h20.8c5,0,8.5,1.4,10.9,4,1.9,2,3,4.7,3,7.6,0,5.1-3.4,9-8.3,10.8l9,15.4h-7.5l-8.1-14.5h-13.4v14.5h-6.5ZM179.2,261.9v11.7h15.5c3.4,0,6.3-2.7,6.3-5.9s-.6-2.7-1.6-3.8c-1.8-1.9-3.9-2-5.9-2h-14.4Z"></path><path fill="#ffffff" d="M216.3,293.9v-37.8h6.5v37.8h-6.5Z"></path><path fill="#ffffff" d="M264.8,265.8c-3.2-3.2-8.6-5.1-13-5.1-8.2,0-13.9,6.5-13.9,14.3s5,14.2,14.5,14.2,8.6-1.2,11.1-3.1v-7.6h-11.9v-5.8h17.8v16.6c-4.7,3.5-11.5,5.7-17.4,5.7-12,0-20.9-9-20.9-20.1s9-20,20.6-20,12.4,2.4,17.6,6.8l-4.5,4.1Z"></path><path fill="#ffffff" d="M279.7,293.9v-37.8h6.5v14.3h20.6v-14.3h6.5v37.8h-6.5v-17.7h-20.6v17.7h-6.5Z"></path><path fill="#ffffff" d="M319.5,256.1h36.2v5.8h-14.8v32h-6.5v-32h-14.9v-5.8Z"></path><path fill="#ffffff" d="M86.3,305v35.2h24.7v2.6h-27.7v-37.8h3Z"></path><path fill="#ffffff" d="M127.9,342.8l17.5-37.8h3.1l17.5,37.8h-3.2l-6-13h-20l-6,13h-3.1ZM138,327.4h17.8l-8.7-19h-.3l-8.7,19Z"></path><path fill="#ffffff" d="M185.9,342.8v-37.8h20.6c4.2,0,7.3,1.2,9.5,3.4,1.6,1.6,2.5,3.6,2.5,6,0,3.8-2.5,7.4-6.3,8.3,4.8.7,7.9,4.7,7.9,9.4s-1,5.3-3.2,7.4c-2.3,2.2-5.2,3.3-9.6,3.3h-21.4ZM188.9,307.6v14.4h19.1c2.1,0,3.9-.8,5.3-2.1,1.3-1.4,2.1-3.2,2.1-5.2s-.8-3.5-2-4.7c-1.7-1.7-4-2.5-7.2-2.5h-17.4ZM188.9,324.5v15.7h18.5c2.8,0,5.4-.6,7.4-2.5,1.6-1.6,2.4-3.6,2.4-5.6s-.8-3.8-2.1-5.2c-1.4-1.5-3.6-2.4-5.9-2.4h-20.3Z"></path><path fill="#ffffff" d="M270.3,311.7c-2.4-2.1-7.4-5-14.4-5s-11.7,2-11.7,7.9,7.1,6.1,13.8,6.5c6.5.4,17.1,1,17.1,10.5s-8,12-17.2,12-14.9-3.9-18.7-7.6l1.8-2c3.4,3.2,8.6,7.1,17,7.1s14.2-2.8,14.2-9.1-7.8-7.6-14.1-8c-7.9-.4-16.7-.9-16.7-9.1s8.2-10.7,14.8-10.7,13.3,3.1,16.1,5.5l-1.8,2Z"></path></g></svg>